<?xml version="1.0" standalone="no"?>
<!DOCTYPE svg PUBLIC "-//W3C//DTD SVG 20010904//EN"
 "http://www.w3.org/TR/2001/REC-SVG-20010904/DTD/svg10.dtd">
<svg version="1.0" xmlns="http://www.w3.org/2000/svg"
 width="1067.000000pt" height="1067.000000pt" viewBox="0 0 1067.000000 1067.000000"
 preserveAspectRatio="xMidYMid meet">
<metadata>
Created by potrace 1.14, written by Peter Selinger 2001-2017
</metadata>
<g transform="translate(0.000000,1067.000000) scale(0.100000,-0.100000)"
fill="#000000" stroke="none">
<path d="M5215 10521 c-22 -10 -515 -292 -1095 -628 -580 -335 -1539 -888
-2130 -1229 -720 -415 -1088 -632 -1115 -659 -23 -22 -52 -63 -66 -90 l-24
-50 0 -2530 0 -2530 27 -52 c16 -29 43 -67 61 -85 26 -26 4187 -2437 4337
-2513 47 -24 163 -31 216 -13 22 8 704 397 1515 865 811 468 1776 1025 2144
1237 731 422 744 430 782 538 17 51 18 152 18 2563 l0 2510 -27 57 c-14 31
-44 73 -65 93 -31 30 -4045 2359 -4301 2496 -68 36 -79 39 -155 39 -58 0 -94
-6 -122 -19z m-195 -1611 l0 -770 -1332 0 c-1187 1 -1331 2 -1313 16 11 8 567
330 1235 716 668 385 1256 725 1305 754 50 29 93 53 98 54 4 0 7 -346 7 -770z
m1956 9 c726 -419 1323 -765 1328 -770 6 -5 -535 -9 -1322 -9 l-1332 0 0 770
c0 424 2 770 4 770 2 0 597 -342 1322 -761z m-2186 -1404 c0 -13 -1553 -2745
-1560 -2745 -5 0 -1517 2612 -1587 2743 -2 4 705 7 1571 7 867 0 1576 -2 1576
-5z m3996 -10 c-3 -8 -221 -412 -484 -897 -264 -486 -593 -1093 -733 -1350
-139 -257 -256 -464 -260 -460 -8 9 -1449 2711 -1449 2718 0 2 660 4 1466 4
1290 0 1465 -2 1460 -15z m-2717 -1722 c402 -754 731 -1374 731 -1377 0 -3
-684 -6 -1521 -6 -1350 0 -1520 2 -1515 15 4 10 1475 2613 1553 2748 3 5 9 5
13 0 4 -4 337 -625 739 -1380z m3186 -2381 c-6 -6 -1495 870 -1495 879 0 5
1002 1858 1476 2729 19 35 19 11 22 -1784 1 -1001 0 -1821 -3 -1824z m-6458
812 c-14 -13 -1374 -814 -1382 -814 -3 0 -5 732 -5 1627 l0 1627 700 -1214
c539 -936 697 -1218 687 -1226z m3963 -441 c0 -8 -1433 -2653 -1436 -2650 -7
8 -1517 2634 -1521 2644 -4 11 260 13 1476 13 815 0 1481 -3 1481 -7z m1425
-478 c393 -231 715 -422 715 -425 0 -3 -534 -313 -1187 -690 -653 -377 -1279
-738 -1390 -802 -190 -109 -202 -115 -187 -85 9 18 303 561 654 1207 350 646
643 1185 649 1198 7 13 16 22 21 20 5 -2 331 -192 725 -423z m-4378 -800 c371
-644 679 -1178 684 -1188 9 -16 8 -17 -8 -9 -103 56 -2709 1564 -2710 1570 -3
8 1338 801 1351 798 4 -1 312 -528 683 -1171z"/>
</g>
</svg>
