<?xml version="1.0" encoding="utf-8"?>
<!-- Generator: Adobe Illustrator 16.0.0, SVG Export Plug-In . SVG Version: 6.00 Build 0)  -->
<!DOCTYPE svg PUBLIC "-//W3C//DTD SVG 1.1//EN" "http://www.w3.org/Graphics/SVG/1.1/DTD/svg11.dtd">
<svg version="1.1" id="Layer_1" xmlns="http://www.w3.org/2000/svg" xmlns:xlink="http://www.w3.org/1999/xlink" x="0px" y="0px"
	 width="16px" height="16px" viewBox="0 0 16 16" enable-background="new 0 0 16 16" xml:space="preserve">
<g>
	<linearGradient id="SVGID_1_" gradientUnits="userSpaceOnUse" x1="1.3218" y1="4.1445" x2="14.6767" y2="11.855">
		<stop  offset="0" style="stop-color:#8A5626"/>
		<stop  offset="1" style="stop-color:#C77D37"/>
	</linearGradient>
	<path fill="url(#SVGID_1_)" d="M13.046,2.046c-0.194-0.194-0.578-0.354-0.854-0.354H3.808c-0.275,0-0.659,0.159-0.854,0.354
		L2.046,2.954C1.852,3.148,1.693,3.533,1.693,3.808v8.385c0,0.275,0.159,0.659,0.354,0.854l0.907,0.907
		c0.194,0.194,0.579,0.354,0.854,0.354h8.387c0.275,0,0.659-0.159,0.854-0.354l0.906-0.906c0.194-0.194,0.354-0.578,0.354-0.854
		V3.807c0-0.275-0.159-0.659-0.354-0.854L13.046,2.046z M8,9.382C7.237,9.382,6.618,8.763,6.618,8S7.237,6.618,8,6.618
		S9.382,7.237,9.382,8S8.763,9.382,8,9.382z"/>
	<linearGradient id="SVGID_2_" gradientUnits="userSpaceOnUse" x1="14.6777" y1="11.8555" x2="1.3228" y2="4.145">
		<stop  offset="0" style="stop-color:#8A5626"/>
		<stop  offset="1" style="stop-color:#C77D37"/>
	</linearGradient>
	<path fill="url(#SVGID_2_)" d="M12.192,2.193c0.143,0,0.399,0.106,0.5,0.207L13.6,3.307c0.101,0.101,0.207,0.357,0.207,0.5v8.387
		c0,0.143-0.106,0.399-0.207,0.5L12.693,13.6c-0.101,0.101-0.357,0.207-0.5,0.207H3.807c-0.143,0-0.399-0.106-0.5-0.207L2.4,12.692
		c-0.101-0.101-0.207-0.357-0.207-0.5V3.808c0-0.143,0.106-0.399,0.207-0.5L3.308,2.4c0.101-0.101,0.357-0.207,0.5-0.207H12.192
		 M8,9.882c1.038,0,1.882-0.844,1.882-1.882c0-1.038-0.844-1.882-1.882-1.882C6.962,6.118,6.118,6.962,6.118,8
		C6.118,9.038,6.962,9.882,8,9.882 M12.192,1.693H3.808c-0.275,0-0.659,0.159-0.854,0.354L2.046,2.954
		C1.852,3.148,1.693,3.533,1.693,3.808v8.385c0,0.275,0.159,0.659,0.354,0.854l0.907,0.907c0.194,0.194,0.579,0.354,0.854,0.354
		h8.387c0.275,0,0.659-0.159,0.854-0.354l0.906-0.906c0.194-0.194,0.354-0.578,0.354-0.854V3.807c0-0.275-0.159-0.659-0.354-0.854
		l-0.907-0.907C12.852,1.852,12.468,1.693,12.192,1.693L12.192,1.693z M8,9.382C7.237,9.382,6.618,8.763,6.618,8
		S7.237,6.618,8,6.618S9.382,7.237,9.382,8S8.763,9.382,8,9.382L8,9.382z"/>
</g>
</svg>
