<?xml version="1.0" encoding="utf-8"?>
<!-- Generator: Adobe Illustrator 16.0.0, SVG Export Plug-In . SVG Version: 6.00 Build 0)  -->
<!DOCTYPE svg PUBLIC "-//W3C//DTD SVG 1.1//EN" "http://www.w3.org/Graphics/SVG/1.1/DTD/svg11.dtd">
<svg version="1.1" id="Layer_1" xmlns="http://www.w3.org/2000/svg" xmlns:xlink="http://www.w3.org/1999/xlink" x="0px" y="0px"
	 width="16px" height="16px" viewBox="0 0 16 16" enable-background="new 0 0 16 16" xml:space="preserve">
<g>
	<linearGradient id="SVGID_1_" gradientUnits="userSpaceOnUse" x1="15.4268" y1="12.2881" x2="0.5724" y2="3.7119">
		<stop  offset="0" style="stop-color:#FFAD00"/>
		<stop  offset="0.2151" style="stop-color:#FFAE02"/>
		<stop  offset="0.2925" style="stop-color:#FFB009"/>
		<stop  offset="0.3477" style="stop-color:#FFB414"/>
		<stop  offset="0.3921" style="stop-color:#FFB925"/>
		<stop  offset="0.4301" style="stop-color:#FFC03B"/>
		<stop  offset="0.4611" style="stop-color:#ECAE2D"/>
		<stop  offset="0.5085" style="stop-color:#D69A1C"/>
		<stop  offset="0.5644" style="stop-color:#C58B0F"/>
		<stop  offset="0.6335" style="stop-color:#BA8007"/>
		<stop  offset="0.7306" style="stop-color:#B37A01"/>
		<stop  offset="1" style="stop-color:#B17800"/>
	</linearGradient>
	<path fill="url(#SVGID_1_)" d="M14.277,12.08c-1.609,0-2.914-1.826-2.914-4.08s1.305-4.081,2.914-4.081h0.001V1.722H1.722v2.198
		c1.61,0,2.915,1.827,2.915,4.081s-1.305,4.08-2.915,4.08v2.198h12.557L14.277,12.08L14.277,12.08z"/>
	<linearGradient id="SVGID_2_" gradientUnits="userSpaceOnUse" x1="0.5718" y1="3.7114" x2="15.427" y2="12.2881">
		<stop  offset="0" style="stop-color:#FFAD00"/>
		<stop  offset="0.2151" style="stop-color:#FFAE02"/>
		<stop  offset="0.2925" style="stop-color:#FFB009"/>
		<stop  offset="0.3477" style="stop-color:#FFB414"/>
		<stop  offset="0.3921" style="stop-color:#FFB925"/>
		<stop  offset="0.4301" style="stop-color:#FFC03B"/>
		<stop  offset="0.4611" style="stop-color:#ECAE2D"/>
		<stop  offset="0.5085" style="stop-color:#D69A1C"/>
		<stop  offset="0.5644" style="stop-color:#C58B0F"/>
		<stop  offset="0.6335" style="stop-color:#BA8007"/>
		<stop  offset="0.7306" style="stop-color:#B37A01"/>
		<stop  offset="1" style="stop-color:#B17800"/>
	</linearGradient>
	<path fill="url(#SVGID_2_)" d="M13.778,2.222l-0.001,1.247C12.131,3.794,10.863,5.702,10.863,8s1.268,4.206,2.915,4.531v1.247
		H2.222v-1.247C3.869,12.206,5.137,10.298,5.137,8S3.869,3.794,2.222,3.468V2.222H13.778 M14.278,1.722H1.722v2.198
		c1.61,0,2.915,1.827,2.915,4.081s-1.305,4.08-2.915,4.08v2.198h12.557V12.08h-0.001c-1.609,0-2.914-1.826-2.914-4.08
		s1.305-4.081,2.914-4.081h0.001V1.722L14.278,1.722z"/>
</g>
</svg>
