<?xml version="1.0" encoding="utf-8"?>
<!-- Generator: Adobe Illustrator 16.0.0, SVG Export Plug-In . SVG Version: 6.00 Build 0)  -->
<!DOCTYPE svg PUBLIC "-//W3C//DTD SVG 1.1//EN" "http://www.w3.org/Graphics/SVG/1.1/DTD/svg11.dtd">
<svg version="1.1" id="Layer_1" xmlns="http://www.w3.org/2000/svg" xmlns:xlink="http://www.w3.org/1999/xlink" x="0px" y="0px"
	 width="16px" height="16px" viewBox="0 0 16 16" enable-background="new 0 0 16 16" xml:space="preserve">
<g>
	<linearGradient id="SVGID_1_" gradientUnits="userSpaceOnUse" x1="14.916" y1="13.9893" x2="4.5423" y2="8">
		<stop  offset="0" style="stop-color:#F1F1F1"/>
		<stop  offset="1" style="stop-color:#8F8F8F"/>
	</linearGradient>
	<path fill="url(#SVGID_1_)" d="M8,2.01L1.084,13.99h13.832L8,2.01z M8,11.309c-0.725,0-1.312-0.587-1.312-1.312
		S7.275,8.686,8,8.686s1.312,0.587,1.312,1.312S8.725,11.309,8,11.309z"/>
	<linearGradient id="SVGID_2_" gradientUnits="userSpaceOnUse" x1="4.5415" y1="7.9995" x2="14.916" y2="13.9893">
		<stop  offset="0" style="stop-color:#E7E7E7"/>
		<stop  offset="1" style="stop-color:#858585"/>
	</linearGradient>
	<path fill="url(#SVGID_2_)" d="M8,3.01l6.049,10.48H1.951L8,3.01 M8,11.809c0.999,0,1.812-0.813,1.812-1.812S8.999,8.186,8,8.186
		S6.188,8.998,6.188,9.997S7.001,11.809,8,11.809 M8,2.01L1.084,13.99h13.832L8,2.01L8,2.01z M8,11.309
		c-0.725,0-1.312-0.587-1.312-1.312S7.275,8.686,8,8.686s1.312,0.587,1.312,1.312S8.725,11.309,8,11.309L8,11.309z"/>
</g>
</svg>
